<svg xmlns="http://www.w3.org/2000/svg" width="56.015" height="56.015" viewBox="0 0 56.015 56.015"><defs><style>.a{fill:#4ea5d9;}</style></defs><path class="a" d="M49.014,45.513v-3.5c0-.7,0-14.354-9.8-18.905-7.7-3.5-7.7-12.253-7.7-12.6V0h-7V10.5c0,.35,0,9.1-7.7,12.6C7,27.658,7,41.311,7,42.012v3.5H0l10.5,10.5,10.5-10.5H14v-3.5s0-9.8,5.952-12.6a20.143,20.143,0,0,0,8.052-7,17.824,17.824,0,0,0,8.052,7c5.952,2.8,5.952,12.6,5.952,12.6v3.5h-7l10.5,10.5,10.5-10.5Z" transform="translate(0 56.015) rotate(-90)"/></svg>