<svg id="commerce-and-shopping" xmlns="http://www.w3.org/2000/svg" width="82" height="82" viewBox="0 0 82 82">
  <path id="Path_1058" data-name="Path 1058" d="M69.991,12.009A41,41,0,0,0,12.009,69.991,41,41,0,0,0,69.991,12.009ZM66.125,61.756l-.519.387A19.642,19.642,0,0,1,53.95,66.006h0a19.546,19.546,0,0,1-2.449-.155l-23.8-3.01H21.4a8.009,8.009,0,0,1-8.009-8.008V35.557A8.017,8.017,0,0,1,21.4,27.549h7.7l1.308-.48a5.033,5.033,0,0,0,3.051-3.212l2.761-8.894a9.625,9.625,0,0,1,18.77,3.8l-.5,5.047,1.737-.377A12.231,12.231,0,0,1,71.051,35.388V51.947A12.286,12.286,0,0,1,66.125,61.756Zm0,0" fill="#2699fb"/>
  <path id="Path_1059" data-name="Path 1059" d="M222.1,97.188a7.5,7.5,0,0,0-5.186-.746l-8.276,1.795L209.8,86.5a4.872,4.872,0,0,0-9.5-1.925L197.5,93.561a9.913,9.913,0,0,1-5.674,6.216l-2.064,27.2,21.946,2.776a14.87,14.87,0,0,0,10.747-2.826l.525-.391a7.5,7.5,0,0,0,3.023-6.02V103.777A7.506,7.506,0,0,0,222.1,97.188Zm0,0" transform="translate(-159.629 -68.348)" fill="#2699fb"/>
  <path id="Path_1060" data-name="Path 1060" d="M113.629,205.253V224.74a3.238,3.238,0,0,0,3.238,3.238h4.239l1.97-25.962h-6.211A3.238,3.238,0,0,0,113.629,205.253Zm0,0" transform="translate(-95.456 -169.821)" fill="#2699fb"/>
</svg>
